<?xml version="1.0" standalone="no"?>
<!DOCTYPE svg PUBLIC "-//W3C//DTD SVG 20010904//EN"
 "http://www.w3.org/TR/2001/REC-SVG-20010904/DTD/svg10.dtd">
<svg version="1.0" xmlns="http://www.w3.org/2000/svg"
 width="1210.000000pt" height="337.000000pt" viewBox="0 0 1210.000000 337.000000"
 preserveAspectRatio="xMidYMid meet">

<g transform="translate(0.000000,337.000000) scale(0.100000,-0.100000)"
fill="#000000" stroke="none">
<path d="M7424 2889 c-66 -25 -165 -115 -195 -176 -34 -72 -33 -182 3 -243 50
-85 124 -121 246 -121 72 0 90 4 145 31 124 63 189 154 195 275 6 113 -40 189
-143 236 -56 26 -182 25 -251 -2z"/>
<path d="M815 2718 c-3 -13 -14 -84 -26 -158 -60 -390 -62 -408 -119 -770 -23
-146 -50 -323 -61 -395 -32 -204 -36 -231 -59 -375 -12 -74 -30 -193 -41 -265
-11 -71 -25 -157 -30 -190 -5 -33 -13 -84 -17 -112 -5 -29 -7 -55 -4 -58 7 -7
597 -6 616 1 9 4 16 18 16 34 0 16 4 50 10 77 5 26 19 111 30 188 12 77 25
165 30 195 5 30 14 85 20 122 5 38 15 97 20 133 14 93 30 191 41 260 5 33 18
119 29 190 11 72 24 157 29 190 6 33 15 92 21 130 6 39 15 97 21 130 5 33 18
119 29 190 11 72 24 157 30 190 5 33 14 94 21 135 6 41 15 95 19 120 5 24 6
48 4 52 -3 4 -144 8 -314 8 l-310 0 -5 -22z"/>
<path d="M2640 2171 c-208 -23 -393 -141 -495 -318 -19 -33 -30 -40 -39 -25
-4 7 11 113 34 241 6 30 10 60 10 68 0 19 -589 19 -594 1 -2 -7 -13 -78 -26
-158 -12 -80 -25 -167 -30 -195 -5 -27 -18 -111 -29 -185 -12 -74 -34 -220
-51 -325 -16 -104 -39 -248 -50 -320 -11 -71 -34 -214 -50 -316 -17 -102 -30
-200 -30 -217 l0 -32 310 0 c208 0 310 3 310 10 0 6 9 66 20 133 11 67 24 149
30 182 5 33 19 121 30 195 25 164 56 361 72 455 31 193 140 299 308 300 62 0
83 -4 120 -25 82 -46 111 -133 91 -268 -11 -74 -41 -263 -60 -387 -6 -33 -15
-91 -21 -130 -24 -150 -31 -194 -50 -312 -11 -67 -20 -129 -20 -138 0 -14 35
-15 313 -13 l312 3 17 110 c10 61 27 169 38 240 38 241 72 456 91 580 6 39 15
93 21 120 16 83 21 265 9 330 -25 137 -124 277 -238 338 -94 50 -225 71 -353
58z"/>
<path d="M5965 2170 c-304 -28 -572 -175 -736 -405 -115 -161 -183 -349 -209
-582 -36 -330 101 -609 365 -737 124 -60 226 -80 415 -79 177 0 248 11 387 59
393 136 649 501 679 969 10 152 -17 292 -79 416 -104 206 -308 329 -596 360
-95 10 -109 10 -226 -1z m161 -485 c21 -16 47 -51 63 -84 25 -53 26 -64 25
-206 0 -132 -3 -161 -27 -237 -65 -217 -171 -330 -312 -331 -93 -1 -144 34
-186 128 -21 44 -23 65 -23 185 1 156 22 259 78 375 43 90 93 147 159 180 45
23 61 26 119 22 54 -3 75 -10 104 -32z"/>
<path d="M8725 2174 c-343 -27 -622 -185 -799 -454 -95 -143 -151 -311 -176
-522 -21 -172 2 -319 70 -464 78 -168 235 -289 447 -343 154 -39 386 -37 548
4 239 61 441 208 558 403 48 78 99 208 112 285 l7 37 -287 -2 c-244 -3 -289
-5 -295 -18 -4 -8 -19 -41 -33 -72 -54 -117 -134 -178 -248 -186 -160 -11
-239 89 -239 302 0 181 62 374 149 468 76 84 195 118 285 84 79 -30 124 -100
135 -211 l6 -60 279 -3 c173 -1 283 1 289 7 18 18 20 162 3 251 -53 284 -266
454 -615 491 -84 8 -114 9 -196 3z"/>
<path d="M10540 2173 c-122 -8 -274 -50 -386 -105 -364 -180 -591 -590 -571
-1035 2 -65 12 -145 21 -178 57 -206 193 -357 391 -432 121 -46 200 -58 380
-57 171 1 253 13 397 61 154 51 320 165 409 283 69 90 137 229 118 241 -8 5
-134 8 -281 7 l-268 -3 -43 -47 c-26 -29 -66 -58 -103 -74 -51 -24 -73 -28
-160 -28 -95 -1 -103 1 -150 29 -29 18 -60 49 -77 77 -25 40 -29 58 -30 120
-1 40 2 79 6 86 6 9 133 12 578 12 313 0 569 2 569 4 0 2 7 43 16 92 24 135
22 348 -4 452 -48 185 -163 332 -323 410 -96 48 -169 68 -289 82 -83 10 -106
10 -200 3z m160 -463 c68 -35 120 -113 120 -179 0 -64 15 -61 -286 -61 -308 0
-292 -5 -255 76 41 89 135 163 235 184 55 12 143 2 186 -20z"/>
<path d="M3319 2143 c-1 -5 -1 -10 -1 -13 0 -5 46 -262 62 -350 6 -30 37 -206
70 -390 61 -340 64 -360 100 -555 11 -60 31 -175 45 -255 14 -80 30 -155 35
-167 l10 -23 354 0 355 0 19 28 c10 15 38 68 62 117 42 86 376 766 654 1330
74 149 132 273 129 278 -2 4 -152 7 -333 7 -252 0 -331 -3 -337 -12 -4 -7
-110 -267 -234 -578 -145 -364 -231 -565 -240 -565 -14 0 -24 71 -48 360 -7
77 -16 187 -22 245 -5 58 -14 157 -20 220 -5 63 -15 163 -21 223 l-11 107
-313 0 c-173 0 -315 -3 -315 -7z"/>
<path d="M7121 2083 c-21 -123 -30 -177 -41 -245 -5 -38 -15 -98 -20 -135 -6
-38 -15 -93 -20 -123 -5 -30 -14 -89 -20 -130 -6 -41 -15 -100 -20 -130 -5
-30 -14 -85 -20 -122 -5 -38 -15 -98 -20 -135 -6 -38 -15 -93 -20 -123 -5 -30
-14 -91 -20 -135 -6 -44 -15 -100 -20 -125 -16 -85 -31 -195 -33 -240 l-2 -45
308 -3 c169 -1 307 0 307 2 0 2 11 71 25 152 13 82 36 226 50 319 14 94 39
256 56 360 39 248 64 405 108 690 11 72 23 154 27 183 l7 52 -311 0 -310 0
-11 -67z"/>
</g>
</svg>
